<?xml version="1.0" encoding="utf-8"?>
<!-- Generator: Adobe Illustrator 22.1.0, SVG Export Plug-In . SVG Version: 6.00 Build 0)  -->
<svg version="1.1" id="Capa_1" xmlns="http://www.w3.org/2000/svg" xmlns:xlink="http://www.w3.org/1999/xlink" x="0px" y="0px"
	 viewBox="0 0 335 100" style="enable-background:new 0 0 335 100;" xml:space="preserve">
<style type="text/css">
	.st0{fill:#EB595B;}
	.st1{fill:#FFF6DA;}
</style>
<g>
	<path class="st0" d="M314,68.1c0,0.4-0.1,0.8-0.3,1.2c-0.1,0.2-0.3,0.3-0.6,0.3H21.9c-0.3,0-0.4-0.1-0.5-0.3
		c-0.2-0.4-0.3-0.8-0.3-1.3c0-0.5,0.1-0.9,0.3-1.3c0.1-0.2,0.3-0.3,0.5-0.3h291.2c0.3,0,0.4,0.1,0.6,0.3
		C313.8,67.2,314,67.6,314,68.1z"/>
	<g>
		<path class="st1" d="M13,52.3c-2.5,0-4.7-0.4-6.6-1.3C4.5,50.1,3,48.8,2,47.2c-1.1-1.6-1.6-3.5-1.6-5.6c0-0.9,0.2-1.6,0.6-1.9
			c0.4-0.3,1-0.5,1.8-0.5c0.6,0,1.2,0.1,1.7,0.4c0.5,0.3,0.7,0.7,0.8,1.3c0,1.3,0.3,2.5,0.9,3.6c0.6,1.1,1.4,1.9,2.6,2.5
			c1.1,0.6,2.5,0.9,4.1,0.9c2.4,0,4.3-0.7,5.7-2c1.3-1.3,2-3.4,2-6.2V13.9H13c-0.5,0-1-0.2-1.2-0.7c-0.3-0.5-0.4-1-0.4-1.6
			c0-0.5,0.1-1,0.4-1.5c0.3-0.5,0.7-0.7,1.3-0.7h10.2c0.6,0,1.1,0.1,1.5,0.4c0.4,0.3,0.7,0.7,0.7,1.3v28.4c0,3.1-0.6,5.5-1.7,7.4
			c-1.1,1.9-2.6,3.2-4.5,4C17.4,51.9,15.3,52.3,13,52.3z"/>
		<path class="st1" d="M46,52.3c-2.4,0-4.6-0.4-6.5-1.3c-1.9-0.8-3.4-2.2-4.5-4c-1.1-1.8-1.7-4.3-1.7-7.4V11.2c0-0.6,0.2-1,0.7-1.3
			c0.5-0.3,1.1-0.4,1.7-0.4c0.6,0,1.2,0.1,1.7,0.4c0.5,0.3,0.8,0.7,0.8,1.3v28.5c0,2.8,0.7,4.9,2,6.2c1.4,1.3,3.3,2,5.8,2
			c2.4,0,4.3-0.7,5.7-2c1.4-1.3,2.1-3.4,2.1-6.2V11.2c0-0.6,0.3-1,0.8-1.3c0.5-0.3,1.1-0.4,1.7-0.4s1.2,0.1,1.7,0.4
			c0.5,0.3,0.8,0.7,0.8,1.3v28.5c0,3.1-0.6,5.6-1.7,7.4c-1.1,1.8-2.6,3.2-4.6,4C50.5,51.9,48.3,52.3,46,52.3z"/>
		<path class="st1" d="M68.9,52c-0.5,0-1-0.1-1.5-0.4c-0.5-0.3-0.7-0.7-0.7-1.3V11.2c0-0.6,0.3-1,0.8-1.3c0.5-0.3,1.1-0.4,1.7-0.4
			c0.6,0,1.2,0.1,1.7,0.4c0.5,0.3,0.8,0.7,0.8,1.3v36.4h15.9c0.5,0,0.9,0.2,1.2,0.7c0.3,0.4,0.4,1,0.4,1.5c0,0.5-0.1,1-0.4,1.5
			c-0.3,0.5-0.6,0.7-1.2,0.7H68.9z"/>
		<path class="st1" d="M96.4,52c-0.6,0-1.1-0.1-1.7-0.4c-0.5-0.3-0.8-0.7-0.8-1.3V11.2c0-0.6,0.3-1,0.8-1.3c0.5-0.3,1.1-0.4,1.7-0.4
			c0.6,0,1.2,0.1,1.7,0.4c0.5,0.3,0.8,0.7,0.8,1.3v39.1c0,0.6-0.3,1-0.8,1.3C97.5,51.8,97,52,96.4,52z"/>
		<path class="st1" d="M133.9,49.9c0,0.4-0.2,0.7-0.5,1c-0.3,0.3-0.7,0.6-1.2,0.8c-0.5,0.2-0.9,0.3-1.3,0.3c-0.4,0-0.8-0.1-1.1-0.3
			c-0.3-0.2-0.5-0.5-0.6-0.8l-0.9-3l-0.2-0.6l-2.7-9.2h0l-1.1-3.5l-0.2-0.6l-5.3-17.7L113.6,34l-1.2,4.1h0l-1.2,4h0l-1.6,5.7l-0.9,3
			c-0.1,0.4-0.3,0.7-0.7,0.8c-0.3,0.2-0.7,0.3-1.2,0.3c-0.4,0-0.8-0.1-1.3-0.3c-0.5-0.2-0.9-0.4-1.2-0.7c-0.3-0.3-0.4-0.7-0.4-1
			c0-0.2,0-0.3,0.1-0.5l11.9-38.6c0.2-0.6,0.5-1,1.1-1.3c0.6-0.3,1.2-0.4,1.9-0.4c0.7,0,1.3,0.1,1.9,0.4c0.6,0.3,0.9,0.7,1.1,1.2
			l11.9,38.6C133.9,49.6,133.9,49.8,133.9,49.9z"/>
		<path class="st1" d="M141.4,52c-0.6,0-1.1-0.1-1.7-0.4c-0.5-0.3-0.8-0.7-0.8-1.3V11.2c0-0.6,0.3-1.1,0.8-1.3s1.1-0.4,1.7-0.4
			c0.6,0,1.1,0.1,1.6,0.3c0.4,0.2,0.8,0.6,1.2,1c0.3,0.4,0.7,1,1,1.7l14.4,28.3V11.2c0-0.6,0.3-1,0.8-1.3c0.5-0.3,1.1-0.4,1.7-0.4
			c0.6,0,1.2,0.1,1.7,0.4c0.5,0.3,0.8,0.7,0.8,1.3v39.1c0,0.6-0.3,1-0.8,1.3c-0.5,0.3-1.1,0.4-1.7,0.4c-0.6,0-1.2-0.2-1.7-0.6
			c-0.5-0.4-1-0.9-1.3-1.6l-15.2-29.2v29.7c0,0.6-0.3,1-0.8,1.3C142.6,51.8,142,52,141.4,52z"/>
		<path class="st1" d="M186.9,52c-0.6,0-1.1-0.1-1.7-0.4c-0.5-0.3-0.8-0.7-0.8-1.3V11.2c0-0.5,0.2-0.9,0.6-1.2
			c0.4-0.3,0.8-0.5,1.4-0.5h11c2.3,0,4.4,0.4,6.3,1.2c1.9,0.8,3.3,2.2,4.4,4c1.1,1.8,1.6,4.3,1.6,7.3v0.5c0,3-0.6,5.5-1.7,7.3
			c-1.1,1.9-2.6,3.2-4.5,4c-1.9,0.8-4,1.2-6.4,1.2h-7.8v15.1c0,0.6-0.3,1-0.8,1.3C188,51.8,187.5,52,186.9,52z M189.3,31.1h7.8
			c2.4,0,4.3-0.7,5.6-2c1.4-1.4,2-3.4,2-6.2v-0.7c0-2.8-0.7-4.9-2-6.2c-1.4-1.3-3.2-2-5.6-2h-7.8V31.1z"/>
		<path class="st1" d="M239.9,49.9c0,0.4-0.2,0.7-0.5,1c-0.3,0.3-0.7,0.6-1.2,0.8c-0.5,0.2-0.9,0.3-1.3,0.3s-0.8-0.1-1.1-0.3
			c-0.3-0.2-0.5-0.5-0.6-0.8l-1-3.4L234,47l-2.6-8.8h0l-1.3-4.5l-0.4-1.3h0l-4.8-16.1l-4.8,16.1l-1.7,5.7h0l-1.2,4h0l-1.5,5.2l0,0.1
			l-1,3.4c-0.1,0.4-0.3,0.7-0.7,0.8c-0.3,0.2-0.7,0.3-1.2,0.3c-0.4,0-0.8-0.1-1.3-0.3c-0.5-0.2-0.9-0.4-1.2-0.7
			c-0.3-0.3-0.4-0.7-0.4-1c0-0.2,0-0.3,0.1-0.5L222,10.8c0.2-0.6,0.5-1,1.1-1.3c0.6-0.3,1.2-0.4,1.9-0.4c0.7,0,1.3,0.1,1.9,0.4
			c0.6,0.3,0.9,0.7,1.1,1.2l11.9,38.6C239.9,49.6,239.9,49.8,239.9,49.9z"/>
		<path class="st1" d="M247.2,52c-0.7,0-1.2-0.2-1.6-0.5c-0.4-0.3-0.6-0.7-0.6-1.2V11.2c0-0.6,0.2-1,0.7-1.3c0.5-0.3,1-0.4,1.5-0.4
			h10c2.1,0,4.1,0.3,5.9,0.8c1.8,0.5,3.2,1.5,4.3,2.9c1.1,1.4,1.6,3.5,1.6,6.2c0,2.4-0.4,4.5-1.3,6.1c-0.9,1.6-2.1,2.8-3.6,3.4
			c1.2,0.5,2.2,1.1,3.1,1.9c0.9,0.8,1.6,1.8,2.1,3.1c0.5,1.3,0.8,2.9,0.8,4.9v1c0,3-0.5,5.4-1.5,7.1c-1,1.8-2.4,3-4.1,3.8
			c-1.7,0.8-3.7,1.2-5.9,1.2H247.2z M249.9,26.9h7.3c2.4,0,4.2-0.5,5.3-1.6c1.1-1.1,1.7-2.8,1.7-5.2c0-1.6-0.3-2.8-0.9-3.7
			c-0.6-0.9-1.4-1.5-2.5-1.9c-1.1-0.4-2.3-0.6-3.7-0.6h-7.1V26.9z M249.9,47.6h7.8c2.4,0,4.2-0.6,5.5-1.9c1.3-1.3,1.9-3.3,1.9-6v-1
			c0-2.8-0.6-4.8-1.9-5.9c-1.3-1.1-3.1-1.7-5.5-1.7h-7.8V47.6z"/>
		<path class="st1" d="M288.7,52.3c-2.4,0-4.5-0.4-6.4-1.3c-1.9-0.8-3.4-2.2-4.5-4c-1.1-1.8-1.7-4.3-1.7-7.4V22.2
			c0-3.1,0.6-5.6,1.7-7.4c1.1-1.8,2.6-3.2,4.5-4c1.9-0.8,4-1.2,6.4-1.2c2.4,0,4.5,0.4,6.4,1.2c1.9,0.8,3.4,2.2,4.5,4
			c1.1,1.8,1.7,4.3,1.7,7.4v17.5c0,3.1-0.6,5.6-1.7,7.4c-1.1,1.8-2.6,3.2-4.5,4C293.2,51.9,291.1,52.3,288.7,52.3z M288.7,47.9
			c2.4,0,4.3-0.7,5.6-2c1.4-1.3,2-3.4,2-6.2V22.2c0-2.8-0.7-4.9-2-6.2c-1.4-1.3-3.2-2-5.6-2c-2.4,0-4.3,0.7-5.6,2
			c-1.3,1.3-2,3.4-2,6.2v17.5c0,2.8,0.7,4.9,2,6.2C284.5,47.2,286.3,47.9,288.7,47.9z"/>
		<path class="st1" d="M311.6,52c-0.6,0-1.1-0.1-1.7-0.4c-0.5-0.3-0.8-0.7-0.8-1.3V11.2c0-0.6,0.3-1.1,0.8-1.3s1.1-0.4,1.7-0.4
			c0.6,0,1.1,0.1,1.6,0.3c0.4,0.2,0.8,0.6,1.2,1c0.3,0.4,0.7,1,1,1.7l14.4,28.3V11.2c0-0.6,0.3-1,0.8-1.3c0.5-0.3,1.1-0.4,1.7-0.4
			c0.6,0,1.2,0.1,1.7,0.4c0.5,0.3,0.8,0.7,0.8,1.3v39.1c0,0.6-0.3,1-0.8,1.3c-0.5,0.3-1.1,0.4-1.7,0.4c-0.6,0-1.2-0.2-1.7-0.6
			c-0.5-0.4-1-0.9-1.3-1.6L314,20.5v29.7c0,0.6-0.3,1-0.8,1.3C312.8,51.8,312.2,52,311.6,52z"/>
		<path class="st0" d="M124.8,2.4c0,0.6-0.1,1.1-0.4,1.7c-0.3,0.5-0.7,0.8-1.3,0.8h-8.3c-0.6,0-1-0.3-1.3-0.8
			c-0.3-0.5-0.4-1.1-0.4-1.7c0-0.6,0.1-1.2,0.4-1.7c0.3-0.5,0.7-0.8,1.3-0.8h8.3c0.6,0,1,0.3,1.3,0.8C124.7,1.3,124.8,1.8,124.8,2.4
			z"/>
		<path class="st0" d="M294.6,2.4c0,0.6-0.1,1.1-0.4,1.7c-0.3,0.5-0.7,0.8-1.3,0.8h-8.3c-0.6,0-1-0.3-1.3-0.8
			c-0.3-0.5-0.4-1.1-0.4-1.7c0-0.6,0.1-1.2,0.4-1.7c0.3-0.5,0.7-0.8,1.3-0.8h8.3c0.6,0,1,0.3,1.3,0.8C294.5,1.3,294.6,1.8,294.6,2.4
			z"/>
	</g>
	<g>
		<path class="st1" d="M26.9,99.7c-0.2,0-0.3-0.1-0.5-0.2c-0.1-0.1-0.2-0.2-0.2-0.4V84.1c0-0.1,0.1-0.3,0.2-0.4
			c0.1-0.1,0.3-0.2,0.5-0.2h3.9c0.9,0,1.7,0.2,2.4,0.5c0.7,0.3,1.3,0.8,1.7,1.5c0.4,0.7,0.6,1.6,0.6,2.7V95c0,1.1-0.2,2.1-0.6,2.8
			c-0.4,0.7-1,1.2-1.7,1.5c-0.7,0.3-1.5,0.5-2.4,0.5H26.9z M27.7,98.4h3.1c1,0,1.8-0.3,2.3-0.8c0.6-0.5,0.8-1.4,0.8-2.6v-6.7
			c0-1.1-0.3-2-0.8-2.5c-0.6-0.5-1.3-0.8-2.3-0.8h-3.1V98.4z"/>
		<path class="st1" d="M45.9,99.7c-0.2,0-0.4,0-0.5-0.1c-0.1-0.1-0.2-0.2-0.2-0.4v-15c0-0.2,0.1-0.3,0.2-0.4s0.3-0.1,0.5-0.1
			c0.2,0,0.3,0,0.5,0.1c0.2,0.1,0.2,0.2,0.2,0.4v15c0,0.2-0.1,0.3-0.2,0.4C46.3,99.7,46.1,99.7,45.9,99.7z"/>
		<path class="st1" d="M60.3,99.9c-0.9,0-1.8-0.1-2.4-0.4c-0.7-0.3-1.2-0.6-1.6-1c-0.4-0.4-0.5-0.7-0.5-1c0-0.1,0-0.2,0.1-0.4
			c0.1-0.1,0.2-0.2,0.3-0.3s0.2-0.1,0.3-0.1c0.1,0,0.3,0.1,0.5,0.3c0.2,0.2,0.4,0.4,0.6,0.6c0.3,0.2,0.6,0.5,1,0.6
			c0.4,0.2,1,0.3,1.7,0.3c0.7,0,1.3-0.1,1.8-0.3s0.9-0.6,1.1-1c0.3-0.4,0.4-1,0.4-1.7c0-0.7-0.1-1.3-0.4-1.7c-0.3-0.4-0.6-0.8-1-1.1
			c-0.4-0.3-0.9-0.5-1.4-0.7c-0.5-0.2-1-0.4-1.6-0.6c-0.5-0.2-1-0.4-1.4-0.8c-0.4-0.3-0.8-0.7-1.1-1.2c-0.3-0.5-0.4-1.1-0.4-1.9
			c0-0.8,0.1-1.5,0.4-2c0.3-0.5,0.7-0.9,1.1-1.2c0.5-0.3,1-0.5,1.5-0.6c0.5-0.1,1.1-0.2,1.6-0.2c0.4,0,0.8,0,1.3,0.1
			c0.4,0.1,0.8,0.2,1.2,0.3c0.4,0.1,0.7,0.3,0.9,0.4c0.2,0.2,0.3,0.3,0.3,0.6c0,0.1,0,0.2-0.1,0.3c-0.1,0.1-0.1,0.2-0.2,0.3
			c-0.1,0.1-0.2,0.1-0.4,0.1c-0.1,0-0.3-0.1-0.6-0.2c-0.2-0.1-0.6-0.3-1-0.4c-0.4-0.1-0.9-0.2-1.6-0.2c-0.5,0-1,0.1-1.5,0.2
			c-0.5,0.2-0.9,0.4-1.2,0.8c-0.3,0.4-0.5,0.9-0.5,1.5c0,0.6,0.1,1.1,0.4,1.4c0.3,0.4,0.6,0.7,1.1,0.9c0.4,0.2,0.9,0.4,1.4,0.6
			c0.5,0.2,1,0.4,1.6,0.6c0.5,0.2,1,0.5,1.4,0.9c0.4,0.3,0.8,0.8,1,1.4c0.3,0.6,0.4,1.3,0.4,2.2c0,1-0.2,1.9-0.6,2.6
			c-0.4,0.7-0.9,1.2-1.6,1.5C62,99.7,61.2,99.9,60.3,99.9z"/>
		<path class="st1" d="M74.9,99.7c-0.2,0-0.3,0-0.5-0.1c-0.1-0.1-0.2-0.2-0.2-0.4v-15c0-0.2,0.1-0.3,0.2-0.4
			c0.1-0.1,0.3-0.1,0.5-0.1h7.9c0.2,0,0.3,0.1,0.4,0.2c0.1,0.1,0.1,0.3,0.1,0.4c0,0.2,0,0.4-0.1,0.5c-0.1,0.1-0.2,0.2-0.4,0.2h-7.1
			V91h3.5c0.2,0,0.3,0.1,0.4,0.2c0.1,0.1,0.1,0.3,0.1,0.5c0,0.1,0,0.3-0.1,0.4c-0.1,0.1-0.2,0.2-0.4,0.2h-3.5v6.1h7.1
			c0.2,0,0.3,0.1,0.4,0.2s0.1,0.3,0.1,0.5c0,0.2,0,0.3-0.1,0.5c-0.1,0.1-0.2,0.2-0.4,0.2H74.9z"/>
		<path class="st1" d="M92.8,99.7c-0.2,0-0.4,0-0.5-0.1c-0.1-0.1-0.2-0.2-0.2-0.4v-15c0-0.2,0.1-0.3,0.2-0.4
			c0.1-0.1,0.3-0.1,0.5-0.1c0.2,0,0.3,0,0.5,0.1c0.1,0.1,0.3,0.2,0.4,0.4c0.1,0.1,0.2,0.3,0.3,0.5l6,11.8V84.1
			c0-0.2,0.1-0.3,0.2-0.4c0.1-0.1,0.3-0.1,0.5-0.1c0.2,0,0.3,0,0.5,0.1c0.2,0.1,0.2,0.2,0.2,0.4v15c0,0.2-0.1,0.3-0.2,0.4
			c-0.2,0.1-0.3,0.1-0.5,0.1c-0.2,0-0.4-0.1-0.6-0.3s-0.3-0.4-0.4-0.6l-6.1-12v12.2c0,0.2-0.1,0.3-0.2,0.4
			C93.1,99.7,93,99.7,92.8,99.7z M98.3,80.7c-0.4,0-0.7-0.1-1-0.2c-0.3-0.1-0.6-0.3-0.9-0.4c-0.3-0.1-0.6-0.2-1-0.2
			c-0.3,0-0.6,0.1-0.8,0.2c-0.2,0.1-0.4,0.2-0.5,0.4c-0.1,0.1-0.3,0.2-0.4,0.2c-0.1,0-0.2,0-0.2-0.1c-0.1-0.1-0.1-0.1-0.1-0.2
			c0-0.1-0.1-0.2-0.1-0.2c0-0.2,0.1-0.4,0.2-0.5c0.1-0.2,0.3-0.3,0.5-0.4c0.2-0.1,0.4-0.2,0.7-0.2c0.2-0.1,0.4-0.1,0.6-0.1
			c0.4,0,0.7,0.1,1,0.2c0.3,0.1,0.6,0.2,0.9,0.4c0.3,0.1,0.6,0.2,1,0.2c0.3,0,0.6-0.1,0.8-0.2c0.2-0.1,0.3-0.2,0.4-0.3
			c0.1-0.1,0.2-0.2,0.4-0.2c0.1,0,0.2,0,0.3,0.1c0.1,0.1,0.1,0.1,0.1,0.2c0,0.1,0,0.1,0,0.2c0,0.2-0.1,0.4-0.2,0.6
			c-0.1,0.2-0.3,0.3-0.5,0.4c-0.2,0.1-0.4,0.2-0.6,0.2C98.6,80.6,98.4,80.7,98.3,80.7z"/>
		<path class="st1" d="M121.1,99.1c0,0.1-0.1,0.2-0.1,0.3c-0.1,0.1-0.2,0.2-0.3,0.2c-0.1,0.1-0.3,0.1-0.4,0.1c-0.1,0-0.2,0-0.3-0.1
			c-0.1-0.1-0.2-0.2-0.2-0.3l-0.8-2.5l-0.7-2.2l-0.5-1.8l-2.1-7.2l-2.2,7.2l-0.5,1.8h0l-0.4,1.3l-0.3,0.9l-0.7,2.5
			c0,0.1-0.1,0.2-0.2,0.3c-0.1,0.1-0.2,0.1-0.4,0.1c-0.1,0-0.2,0-0.4-0.1c-0.1-0.1-0.2-0.1-0.3-0.2c-0.1-0.1-0.1-0.2-0.1-0.3
			c0-0.1,0-0.1,0-0.2l4.6-15c0.1-0.2,0.2-0.3,0.3-0.4c0.2-0.1,0.3-0.1,0.5-0.1c0.2,0,0.4,0,0.6,0.1c0.2,0.1,0.3,0.2,0.3,0.4l4.6,15
			C121.1,99,121.1,99,121.1,99.1z"/>
		<path class="st1" d="M130.5,99.7c-0.2,0-0.3-0.1-0.5-0.2c-0.1-0.1-0.2-0.2-0.2-0.4V84.1c0-0.1,0.1-0.3,0.2-0.4
			c0.1-0.1,0.3-0.2,0.5-0.2h3.9c0.9,0,1.7,0.2,2.4,0.5c0.7,0.3,1.3,0.8,1.7,1.5c0.4,0.7,0.6,1.6,0.6,2.7V95c0,1.1-0.2,2.1-0.6,2.8
			c-0.4,0.7-1,1.2-1.7,1.5c-0.7,0.3-1.5,0.5-2.4,0.5H130.5z M131.3,98.4h3.1c1,0,1.8-0.3,2.3-0.8c0.6-0.5,0.8-1.4,0.8-2.6v-6.7
			c0-1.1-0.3-2-0.8-2.5c-0.6-0.5-1.3-0.8-2.3-0.8h-3.1V98.4z"/>
		<path class="st1" d="M153.3,99.9c-0.9,0-1.6-0.2-2.3-0.5c-0.7-0.3-1.2-0.8-1.6-1.5c-0.4-0.7-0.6-1.6-0.6-2.8v-6.9
			c0-1.1,0.2-2,0.6-2.7c0.4-0.7,0.9-1.2,1.6-1.5c0.7-0.3,1.5-0.5,2.3-0.5c0.9,0,1.6,0.2,2.3,0.5c0.7,0.3,1.2,0.8,1.7,1.5
			c0.4,0.7,0.6,1.6,0.6,2.7v6.9c0,1.1-0.2,2.1-0.6,2.8c-0.4,0.7-1,1.2-1.7,1.5C154.9,99.7,154.2,99.9,153.3,99.9z M153.3,98.5
			c1,0,1.8-0.3,2.3-0.8c0.6-0.5,0.8-1.4,0.8-2.6v-6.9c0-1.1-0.3-2-0.8-2.5c-0.6-0.5-1.3-0.8-2.3-0.8s-1.8,0.3-2.3,0.8
			c-0.5,0.5-0.8,1.4-0.8,2.5v6.9c0,1.2,0.3,2,0.8,2.6C151.5,98.2,152.3,98.5,153.3,98.5z"/>
		<path class="st1" d="M176.2,99.8c-0.2,0-0.3-0.1-0.4-0.2c-0.1-0.2-0.2-0.3-0.3-0.5l-3.4-6.6h-2.8v6.8c0,0.2-0.1,0.3-0.2,0.4
			c-0.2,0.1-0.3,0.1-0.5,0.1c-0.2,0-0.4,0-0.5-0.1c-0.1-0.1-0.2-0.2-0.2-0.4v-15c0-0.1,0.1-0.3,0.2-0.4c0.1-0.1,0.2-0.2,0.4-0.2h3.9
			c0.9,0,1.7,0.1,2.4,0.4c0.7,0.3,1.3,0.7,1.7,1.3c0.4,0.6,0.7,1.5,0.7,2.6c0,0.9-0.2,1.7-0.5,2.3c-0.3,0.6-0.7,1-1.2,1.4
			c-0.5,0.3-1.1,0.5-1.8,0.7l3.4,6.5c0,0,0.1,0.1,0.1,0.1s0,0.1,0,0.1c0,0.1,0,0.2-0.1,0.4c-0.1,0.1-0.2,0.2-0.3,0.3
			C176.4,99.7,176.3,99.8,176.2,99.8z M169.2,91.1h3c1,0,1.8-0.2,2.4-0.7c0.6-0.5,0.9-1.3,0.9-2.4c0-1.1-0.3-1.9-0.9-2.4
			c-0.6-0.5-1.4-0.7-2.4-0.7h-3V91.1z"/>
		<path class="st1" d="M201.5,99.9c-0.9,0-1.6-0.2-2.3-0.5c-0.7-0.3-1.2-0.8-1.6-1.5c-0.4-0.7-0.6-1.6-0.6-2.8v-6.9
			c0-1.1,0.2-2,0.6-2.7c0.4-0.7,0.9-1.2,1.6-1.5c0.7-0.3,1.5-0.5,2.3-0.5c0.9,0,1.8,0.2,2.5,0.5c0.7,0.3,1.2,0.8,1.6,1.4
			c0.4,0.6,0.6,1.2,0.6,2c0,0.3-0.1,0.5-0.2,0.6c-0.1,0.1-0.3,0.2-0.5,0.2c-0.2,0-0.4,0-0.5-0.1c-0.1-0.1-0.2-0.2-0.2-0.4
			c-0.1-0.6-0.2-1.1-0.5-1.5c-0.3-0.4-0.6-0.7-1-0.9c-0.4-0.2-1-0.3-1.6-0.3c-1,0-1.8,0.3-2.3,0.8c-0.5,0.5-0.8,1.4-0.8,2.5v6.9
			c0,1.1,0.3,2,0.8,2.6c0.5,0.6,1.3,0.8,2.3,0.8s1.8-0.3,2.3-0.8c0.6-0.6,0.8-1.4,0.8-2.6v-2.6h-3c-0.2,0-0.3-0.1-0.4-0.2
			c-0.1-0.1-0.1-0.3-0.1-0.4c0-0.1,0-0.3,0.1-0.4c0.1-0.1,0.2-0.2,0.4-0.2h3.9c0.2,0,0.3,0.1,0.4,0.2c0.1,0.1,0.1,0.2,0.1,0.4v3.3
			c0,1.1-0.2,2.1-0.6,2.8c-0.4,0.7-1,1.2-1.7,1.5C203.1,99.7,202.4,99.9,201.5,99.9z"/>
		<path class="st1" d="M224.1,99.8c-0.2,0-0.3-0.1-0.4-0.2c-0.1-0.2-0.2-0.3-0.3-0.5l-3.4-6.6h-2.8v6.8c0,0.2-0.1,0.3-0.2,0.4
			c-0.2,0.1-0.3,0.1-0.5,0.1c-0.2,0-0.4,0-0.5-0.1c-0.1-0.1-0.2-0.2-0.2-0.4v-15c0-0.1,0.1-0.3,0.2-0.4c0.1-0.1,0.2-0.2,0.4-0.2h3.9
			c0.9,0,1.7,0.1,2.4,0.4c0.7,0.3,1.3,0.7,1.7,1.3c0.4,0.6,0.7,1.5,0.7,2.6c0,0.9-0.2,1.7-0.5,2.3c-0.3,0.6-0.7,1-1.2,1.4
			c-0.5,0.3-1.1,0.5-1.8,0.7l3.4,6.5c0,0,0.1,0.1,0.1,0.1s0,0.1,0,0.1c0,0.1,0,0.2-0.1,0.4c-0.1,0.1-0.2,0.2-0.3,0.3
			C224.4,99.7,224.3,99.8,224.1,99.8z M217.1,91.1h3c1,0,1.8-0.2,2.4-0.7c0.6-0.5,0.9-1.3,0.9-2.4c0-1.1-0.3-1.9-0.9-2.4
			c-0.6-0.5-1.4-0.7-2.4-0.7h-3V91.1z"/>
		<path class="st1" d="M240,78.8c-0.1-0.1-0.2-0.2-0.4-0.2c-0.1,0-0.1,0-0.2,0.1L237,80c-0.2,0.1-0.2,0.2-0.2,0.4
			c0,0.2,0.1,0.3,0.2,0.4c0.1,0.1,0.3,0.2,0.4,0.2c0,0,0.1,0,0.1,0c0,0,0.1,0,0.1,0l2.4-1.3c0.2-0.1,0.3-0.3,0.3-0.5
			C240.1,79.1,240.1,79,240,78.8z"/>
		<path class="st1" d="M243.7,99.1c0,0.1,0,0.2-0.1,0.3c-0.1,0.1-0.2,0.2-0.3,0.2c-0.1,0.1-0.3,0.1-0.4,0.1c-0.1,0-0.2,0-0.3-0.1
			c-0.1-0.1-0.2-0.2-0.2-0.3l-0.6-2l-0.8-2.7l-0.2-0.7l-2.5-8.2l-2.5,8.2l-0.2,0.7h0l-0.8,2.7l-0.6,2c0,0.1-0.1,0.2-0.2,0.3
			c-0.1,0.1-0.2,0.1-0.4,0.1c-0.1,0-0.2,0-0.4-0.1c-0.1-0.1-0.2-0.1-0.3-0.2c-0.1-0.1-0.1-0.2-0.1-0.3c0-0.1,0-0.1,0-0.2l4.6-15
			c0.1-0.2,0.2-0.3,0.3-0.4c0.2-0.1,0.3-0.1,0.5-0.1c0.2,0,0.4,0,0.6,0.1c0.2,0.1,0.3,0.2,0.3,0.4l4.6,15
			C243.7,99,243.7,99,243.7,99.1z"/>
		<path class="st1" d="M253.2,99.7c-0.2,0-0.4,0-0.5-0.1c-0.1-0.1-0.2-0.2-0.2-0.4v-15c0-0.2,0.1-0.3,0.2-0.4
			c0.1-0.1,0.3-0.1,0.5-0.1h7.8c0.2,0,0.3,0.1,0.4,0.2c0.1,0.1,0.1,0.3,0.1,0.4c0,0.2,0,0.4-0.1,0.5c-0.1,0.1-0.2,0.2-0.4,0.2h-7V91
			h3.5c0.2,0,0.3,0.1,0.4,0.2c0.1,0.1,0.1,0.3,0.1,0.5c0,0.1,0,0.3-0.1,0.4c-0.1,0.1-0.2,0.2-0.4,0.2H254v6.9c0,0.2-0.1,0.3-0.2,0.4
			C253.6,99.7,253.4,99.7,253.2,99.7z"/>
		<path class="st1" d="M270.8,99.7c-0.2,0-0.4,0-0.5-0.1c-0.1-0.1-0.2-0.2-0.2-0.4v-15c0-0.2,0.1-0.3,0.2-0.4
			c0.1-0.1,0.3-0.1,0.5-0.1c0.2,0,0.3,0,0.5,0.1c0.2,0.1,0.2,0.2,0.2,0.4v15c0,0.2-0.1,0.3-0.2,0.4C271.2,99.7,271,99.7,270.8,99.7z
			"/>
		<path class="st1" d="M286,99.9c-0.8,0-1.6-0.2-2.3-0.5c-0.7-0.3-1.3-0.8-1.7-1.5c-0.4-0.7-0.6-1.6-0.6-2.8v-6.9
			c0-1.1,0.2-2,0.6-2.7c0.4-0.7,1-1.2,1.7-1.5c0.7-0.3,1.5-0.5,2.3-0.5c1,0,1.8,0.2,2.5,0.5c0.7,0.3,1.2,0.8,1.6,1.3
			c0.4,0.6,0.5,1.2,0.5,1.8c0,0.4-0.1,0.6-0.2,0.7c-0.1,0.1-0.3,0.2-0.5,0.2c-0.3,0-0.5-0.1-0.6-0.2c-0.1-0.1-0.2-0.2-0.2-0.4
			c0-0.2-0.1-0.5-0.1-0.8c-0.1-0.3-0.2-0.6-0.4-0.9c-0.2-0.3-0.5-0.5-0.9-0.7c-0.4-0.2-0.9-0.3-1.6-0.3c-1,0-1.8,0.3-2.4,0.8
			c-0.5,0.5-0.8,1.4-0.8,2.5v6.9c0,1.2,0.3,2,0.8,2.6c0.6,0.5,1.4,0.8,2.4,0.8c0.7,0,1.2-0.1,1.6-0.3c0.4-0.2,0.7-0.4,0.9-0.7
			c0.2-0.3,0.3-0.6,0.4-0.9c0.1-0.3,0.1-0.6,0.2-0.9c0-0.2,0.1-0.3,0.2-0.4c0.1-0.1,0.3-0.1,0.5-0.1c0.3,0,0.4,0.1,0.6,0.2
			c0.1,0.1,0.2,0.4,0.2,0.7c0,0.7-0.2,1.3-0.6,1.8c-0.4,0.6-0.9,1-1.6,1.4C287.8,99.7,286.9,99.9,286,99.9z"/>
		<path class="st1" d="M304.2,99.9c-0.9,0-1.6-0.2-2.3-0.5c-0.7-0.3-1.2-0.8-1.6-1.5c-0.4-0.7-0.6-1.6-0.6-2.8v-6.9
			c0-1.1,0.2-2,0.6-2.7c0.4-0.7,1-1.2,1.6-1.5c0.7-0.3,1.5-0.5,2.3-0.5c0.9,0,1.6,0.2,2.3,0.5c0.7,0.3,1.2,0.8,1.7,1.5
			c0.4,0.7,0.6,1.6,0.6,2.7v6.9c0,1.1-0.2,2.1-0.6,2.8c-0.4,0.7-1,1.2-1.7,1.5C305.8,99.7,305.1,99.9,304.2,99.9z M304.2,98.5
			c1,0,1.8-0.3,2.3-0.8c0.6-0.5,0.8-1.4,0.8-2.6v-6.9c0-1.1-0.3-2-0.8-2.5c-0.6-0.5-1.3-0.8-2.3-0.8c-1,0-1.8,0.3-2.3,0.8
			c-0.5,0.5-0.8,1.4-0.8,2.5v6.9c0,1.2,0.3,2,0.8,2.6C302.4,98.2,303.2,98.5,304.2,98.5z"/>
	</g>
</g>
</svg>
